<svg width="8" height="8" viewBox="0 0 8 8" fill="none" xmlns="http://www.w3.org/2000/svg">
<path fill-rule="evenodd" clip-rule="evenodd" d="M7.29983 4.00004C7.29983 4.2375 7.10755 4.43048 6.86935 4.43048H4.42995V6.86961C4.42995 7.10706 4.23767 7.30004 3.99947 7.30004C3.76127 7.30004 3.56971 7.10706 3.56971 6.86961V4.43048H1.12959C0.891393 4.43048 0.699829 4.2375 0.699829 4.00004C0.699829 3.76259 0.891393 3.56961 1.12959 3.56961H3.56971V1.13048C3.56971 0.893021 3.76127 0.700043 3.99947 0.700043C4.23767 0.700043 4.42995 0.893021 4.42995 1.13048V3.56961H6.86935C7.10755 3.56961 7.29983 3.76259 7.29983 4.00004Z" fill="#44403C"/>
</svg>
